# xmcd
#
# Track frame offsets: 
#        150
#        10208
#        24377
#        35489
#        51675
#        77109
#        98652
#        112269
#        125546
#        141660
#        165602
#        181486
#        196553
#
# Disc length: 2752 seconds
#
# Revision: 1
# Processed by: cddbd v1.5.2PL0 Copyright (c) Steve Scherf et al.
# Submitted via: ExactAudioCopy v1.2
#
DISCID=b40abe0d
DTITLE=Kenny 'Blues Boss' Wayne - Jumpin' and Boppin'
DYEAR=2016
DGENRE=Blues
TTITLE0=Blues Boss Shuffle
TTITLE1=Bankrupted Blues
TTITLE2=Jumpin' and Boppin' With Joy
TTITLE3=Blues Stew
TTITLE4=You Don't Know Me
TTITLE5=Blackmail Blues
TTITLE6=Look Out! There's a Train Coming
TTITLE7=I Need Your Lovin'
TTITLE8=Ciao, Ciao Baby
TTITLE9=Back to Square One
TTITLE10=I'm Comin' Home
TTITLE11=Rock, Rock Little Girl
TTITLE12=Boogie to Gloryland
EXTD=
EXTT0=
EXTT1=
EXTT2=
EXTT3=
EXTT4=
EXTT5=
EXTT6=
EXTT7=
EXTT8=
EXTT9=
EXTT10=
EXTT11=
EXTT12=
PLAYORDER=
